<mxfile host="65bd71144e">
    <diagram id="E0A-_MabPJE4LGg0DmH5" name="第1頁">
        <mxGraphModel dx="604" dy="414" grid="1" gridSize="10" guides="1" tooltips="1" connect="1" arrows="1" fold="1" page="1" pageScale="1" pageWidth="827" pageHeight="1169" math="0" shadow="0">
            <root>
                <mxCell id="0"/>
                <mxCell id="1" parent="0"/>
                <mxCell id="2" value="收集需求" style="rounded=1;whiteSpace=wrap;html=1;fillColor=#0050ef;fontColor=#ffffff;strokeColor=#001DBC;" vertex="1" parent="1">
                    <mxGeometry x="13" y="20" width="80" height="30" as="geometry"/>
                </mxCell>
                <mxCell id="3" value="需求分析" style="rounded=1;whiteSpace=wrap;html=1;fillColor=#0050ef;fontColor=#ffffff;strokeColor=#001DBC;" vertex="1" parent="1">
                    <mxGeometry x="60" y="60" width="80" height="30" as="geometry"/>
                </mxCell>
                <mxCell id="4" value="架構設計" style="rounded=1;whiteSpace=wrap;html=1;fillColor=#0050ef;fontColor=#ffffff;strokeColor=#001DBC;" vertex="1" parent="1">
                    <mxGeometry x="110" y="100" width="80" height="30" as="geometry"/>
                </mxCell>
                <mxCell id="5" value="確認開發規格" style="rounded=1;whiteSpace=wrap;html=1;fillColor=#0050ef;fontColor=#ffffff;strokeColor=#001DBC;" vertex="1" parent="1">
                    <mxGeometry x="160" y="140" width="80" height="30" as="geometry"/>
                </mxCell>
                <mxCell id="6" value="系統功能開發" style="rounded=1;whiteSpace=wrap;html=1;fillColor=#0050ef;fontColor=#ffffff;strokeColor=#001DBC;" vertex="1" parent="1">
                    <mxGeometry x="210" y="180" width="80" height="30" as="geometry"/>
                </mxCell>
                <mxCell id="7" value="功能測試" style="rounded=1;whiteSpace=wrap;html=1;fillColor=#0050ef;fontColor=#ffffff;strokeColor=#001DBC;" vertex="1" parent="1">
                    <mxGeometry x="260" y="220" width="80" height="30" as="geometry"/>
                </mxCell>
                <mxCell id="8" value="上線與交付" style="rounded=1;whiteSpace=wrap;html=1;fillColor=#0050ef;fontColor=#ffffff;strokeColor=#001DBC;" vertex="1" parent="1">
                    <mxGeometry x="310" y="260" width="80" height="30" as="geometry"/>
                </mxCell>
                <mxCell id="9" value="" style="endArrow=classic;html=1;entryX=0.884;entryY=-0.072;entryDx=0;entryDy=0;entryPerimeter=0;" edge="1" parent="1" target="3">
                    <mxGeometry width="50" height="50" relative="1" as="geometry">
                        <mxPoint x="100" y="30" as="sourcePoint"/>
                        <mxPoint x="130" y="50" as="targetPoint"/>
                        <Array as="points">
                            <mxPoint x="130" y="30"/>
                        </Array>
                    </mxGeometry>
                </mxCell>
                <mxCell id="12" value="" style="endArrow=classic;html=1;entryX=0.884;entryY=-0.072;entryDx=0;entryDy=0;entryPerimeter=0;" edge="1" parent="1">
                    <mxGeometry width="50" height="50" relative="1" as="geometry">
                        <mxPoint x="150" y="72.16" as="sourcePoint"/>
                        <mxPoint x="180.72000000000003" y="99.99999999999997" as="targetPoint"/>
                        <Array as="points">
                            <mxPoint x="180" y="72.16"/>
                        </Array>
                    </mxGeometry>
                </mxCell>
                <mxCell id="13" value="" style="endArrow=classic;html=1;entryX=0.884;entryY=-0.072;entryDx=0;entryDy=0;entryPerimeter=0;" edge="1" parent="1">
                    <mxGeometry width="50" height="50" relative="1" as="geometry">
                        <mxPoint x="194.64" y="109.99999999999997" as="sourcePoint"/>
                        <mxPoint x="225.36" y="137.84" as="targetPoint"/>
                        <Array as="points">
                            <mxPoint x="224.64" y="110"/>
                        </Array>
                    </mxGeometry>
                </mxCell>
                <mxCell id="14" value="" style="endArrow=classic;html=1;entryX=0.884;entryY=-0.072;entryDx=0;entryDy=0;entryPerimeter=0;" edge="1" parent="1">
                    <mxGeometry width="50" height="50" relative="1" as="geometry">
                        <mxPoint x="244.64" y="152.16" as="sourcePoint"/>
                        <mxPoint x="275.36" y="180.00000000000003" as="targetPoint"/>
                        <Array as="points">
                            <mxPoint x="274.64" y="152.16"/>
                        </Array>
                    </mxGeometry>
                </mxCell>
                <mxCell id="15" value="" style="endArrow=classic;html=1;entryX=0.884;entryY=-0.072;entryDx=0;entryDy=0;entryPerimeter=0;" edge="1" parent="1">
                    <mxGeometry width="50" height="50" relative="1" as="geometry">
                        <mxPoint x="299.28" y="192.15999999999997" as="sourcePoint"/>
                        <mxPoint x="330" y="220" as="targetPoint"/>
                        <Array as="points">
                            <mxPoint x="329.28" y="192.16"/>
                        </Array>
                    </mxGeometry>
                </mxCell>
                <mxCell id="16" value="" style="endArrow=classic;html=1;entryX=0.884;entryY=-0.072;entryDx=0;entryDy=0;entryPerimeter=0;" edge="1" parent="1">
                    <mxGeometry width="50" height="50" relative="1" as="geometry">
                        <mxPoint x="349.28" y="232.15999999999997" as="sourcePoint"/>
                        <mxPoint x="380" y="260" as="targetPoint"/>
                        <Array as="points">
                            <mxPoint x="379.28" y="232.16"/>
                        </Array>
                    </mxGeometry>
                </mxCell>
                <mxCell id="17" value="用戶需求探索" style="text;html=1;align=center;verticalAlign=middle;resizable=0;points=[];autosize=1;strokeColor=none;fillColor=none;" vertex="1" parent="1">
                    <mxGeometry x="130" y="20" width="100" height="30" as="geometry"/>
                </mxCell>
                <mxCell id="18" value="功能解決方案設計" style="text;html=1;align=center;verticalAlign=middle;resizable=0;points=[];autosize=1;strokeColor=none;fillColor=none;" vertex="1" parent="1">
                    <mxGeometry x="180" y="60" width="120" height="30" as="geometry"/>
                </mxCell>
                <mxCell id="19" value="撰寫用戶功能需求書" style="text;html=1;align=center;verticalAlign=middle;resizable=0;points=[];autosize=1;strokeColor=none;fillColor=none;" vertex="1" parent="1">
                    <mxGeometry x="230" y="100" width="130" height="30" as="geometry"/>
                </mxCell>
                <mxCell id="20" value="撰寫程式與功能開發" style="text;html=1;align=center;verticalAlign=middle;resizable=0;points=[];autosize=1;strokeColor=none;fillColor=none;" vertex="1" parent="1">
                    <mxGeometry x="270" y="140" width="130" height="30" as="geometry"/>
                </mxCell>
                <mxCell id="21" value="系統整合測試與使用者測試" style="text;html=1;align=center;verticalAlign=middle;resizable=0;points=[];autosize=1;strokeColor=none;fillColor=none;" vertex="1" parent="1">
                    <mxGeometry x="320" y="180" width="170" height="30" as="geometry"/>
                </mxCell>
                <mxCell id="22" value="正式環境部署與交付準備" style="text;html=1;align=center;verticalAlign=middle;resizable=0;points=[];autosize=1;strokeColor=none;fillColor=none;" vertex="1" parent="1">
                    <mxGeometry x="371" y="221" width="160" height="30" as="geometry"/>
                </mxCell>
            </root>
        </mxGraphModel>
    </diagram>
</mxfile>